<?xml version="1.0" encoding="UTF-8" standalone="no"?>
<!DOCTYPE svg PUBLIC "-//W3C//DTD SVG 1.1//EN"
 "http://www.w3.org/Graphics/SVG/1.1/DTD/svg11.dtd">
<!-- Generated by graphviz version 2.43.0 (0)
 -->
<!-- Title: PKB_Detailed_Workflow Pages: 1 -->
<svg width="720pt" height="378pt"
 viewBox="0.00 0.00 720.00 377.59" xmlns="http://www.w3.org/2000/svg" xmlns:xlink="http://www.w3.org/1999/xlink">
<g id="graph0" class="graph" transform="scale(0.65 0.65) rotate(0) translate(4 581)">
<title>PKB_Detailed_Workflow</title>
<polygon fill="white" stroke="transparent" points="-4,4 -4,-581 1111.5,-581 1111.5,4 -4,4"/>
<!-- A -->
<g id="node1" class="node">
<title>A</title>
<polygon fill="lightblue" stroke="black" points="613.5,-577 610.5,-581 589.5,-581 586.5,-577 500.5,-577 500.5,-539 613.5,-539 613.5,-577"/>
<text text-anchor="middle" x="557" y="-561.8" font-family="Times,serif" font-size="14.00">new_links.md</text>
<text text-anchor="middle" x="557" y="-546.8" font-family="Times,serif" font-size="14.00">(Input Links)</text>
</g>
<!-- B -->
<g id="node2" class="node">
<title>B</title>
<polygon fill="lightyellow" stroke="black" points="606.5,-502 507.5,-502 507.5,-464 606.5,-464 606.5,-502"/>
<text text-anchor="middle" x="557" y="-486.8" font-family="Times,serif" font-size="14.00">Fetch Title</text>
<text text-anchor="middle" x="557" y="-471.8" font-family="Times,serif" font-size="14.00">(fetch_title)</text>
</g>
<!-- A&#45;&gt;B -->
<g id="edge1" class="edge">
<title>A&#45;&gt;B</title>
<path fill="none" stroke="black" d="M557,-538.96C557,-530.88 557,-521.18 557,-512.18"/>
<polygon fill="black" stroke="black" points="560.5,-512.09 557,-502.09 553.5,-512.09 560.5,-512.09"/>
</g>
<!-- C -->
<g id="node3" class="node">
<title>C</title>
<polygon fill="lightyellow" stroke="black" points="647.5,-427 466.5,-427 466.5,-389 647.5,-389 647.5,-427"/>
<text text-anchor="middle" x="557" y="-411.8" font-family="Times,serif" font-size="14.00">Clean Title</text>
<text text-anchor="middle" x="557" y="-396.8" font-family="Times,serif" font-size="14.00">(remove_invalid_chars)</text>
</g>
<!-- B&#45;&gt;C -->
<g id="edge2" class="edge">
<title>B&#45;&gt;C</title>
<path fill="none" stroke="black" d="M557,-463.96C557,-455.88 557,-446.18 557,-437.18"/>
<polygon fill="black" stroke="black" points="560.5,-437.09 557,-427.09 553.5,-437.09 560.5,-437.09"/>
</g>
<!-- D -->
<g id="node4" class="node">
<title>D</title>
<polygon fill="lightgreen" stroke="black" points="622.5,-352 491.5,-352 491.5,-314 622.5,-314 622.5,-352"/>
<text text-anchor="middle" x="557" y="-336.8" font-family="Times,serif" font-size="14.00">Extract Content</text>
<text text-anchor="middle" x="557" y="-321.8" font-family="Times,serif" font-size="14.00">(summary.py)</text>
</g>
<!-- C&#45;&gt;D -->
<g id="edge3" class="edge">
<title>C&#45;&gt;D</title>
<path fill="none" stroke="black" d="M557,-388.96C557,-380.88 557,-371.18 557,-362.18"/>
<polygon fill="black" stroke="black" points="560.5,-362.09 557,-352.09 553.5,-362.09 560.5,-362.09"/>
</g>
<!-- E -->
<g id="node5" class="node">
<title>E</title>
<polygon fill="lightgreen" stroke="black" points="194,-277 0,-277 0,-239 194,-239 194,-277"/>
<text text-anchor="middle" x="97" y="-261.8" font-family="Times,serif" font-size="14.00">Summarize Content</text>
<text text-anchor="middle" x="97" y="-246.8" font-family="Times,serif" font-size="14.00">(Llama model, 10 words)</text>
</g>
<!-- D&#45;&gt;E -->
<g id="edge4" class="edge">
<title>D&#45;&gt;E</title>
<path fill="none" stroke="black" d="M491.39,-322.09C422.44,-311.61 310.55,-294.42 204,-277.15"/>
<polygon fill="black" stroke="black" points="204.47,-273.68 194.04,-275.53 203.35,-280.59 204.47,-273.68"/>
</g>
<!-- D1 -->
<g id="node10" class="node">
<title>D1</title>
<polygon fill="white" stroke="black" points="440,-276 212,-276 212,-272 208,-272 208,-268 212,-268 212,-248 208,-248 208,-244 212,-244 212,-240 440,-240 440,-276"/>
<polyline fill="none" stroke="black" points="212,-272 216,-272 216,-268 212,-268 "/>
<polyline fill="none" stroke="black" points="212,-248 216,-248 216,-244 212,-244 "/>
<text text-anchor="middle" x="326" y="-254.3" font-family="Times,serif" font-size="14.00">Medium/Blog → newspaper3k</text>
</g>
<!-- D&#45;&gt;D1 -->
<g id="edge9" class="edge">
<title>D&#45;&gt;D1</title>
<path fill="none" stroke="black" d="M499.9,-313.96C466.58,-303.43 424.46,-290.12 390.02,-279.23"/>
<polygon fill="black" stroke="black" points="390.65,-275.76 380.06,-276.09 388.54,-282.44 390.65,-275.76"/>
</g>
<!-- D2 -->
<g id="node11" class="node">
<title>D2</title>
<polygon fill="white" stroke="black" points="656,-276 458,-276 458,-272 454,-272 454,-268 458,-268 458,-248 454,-248 454,-244 458,-244 458,-240 656,-240 656,-276"/>
<polyline fill="none" stroke="black" points="458,-272 462,-272 462,-268 458,-268 "/>
<polyline fill="none" stroke="black" points="458,-248 462,-248 462,-244 458,-244 "/>
<text text-anchor="middle" x="557" y="-254.3" font-family="Times,serif" font-size="14.00">LinkedIn → Manual Entry</text>
</g>
<!-- D&#45;&gt;D2 -->
<g id="edge10" class="edge">
<title>D&#45;&gt;D2</title>
<path fill="none" stroke="black" d="M557,-313.96C557,-305.7 557,-295.74 557,-286.57"/>
<polygon fill="black" stroke="black" points="560.5,-286.33 557,-276.33 553.5,-286.33 560.5,-286.33"/>
</g>
<!-- D3 -->
<g id="node12" class="node">
<title>D3</title>
<polygon fill="white" stroke="black" points="898,-276 674,-276 674,-272 670,-272 670,-268 674,-268 674,-248 670,-248 670,-244 674,-244 674,-240 898,-240 898,-276"/>
<polyline fill="none" stroke="black" points="674,-272 678,-272 678,-268 674,-268 "/>
<polyline fill="none" stroke="black" points="674,-248 678,-248 678,-244 674,-244 "/>
<text text-anchor="middle" x="786" y="-254.3" font-family="Times,serif" font-size="14.00">GitHub Repo → README.md</text>
</g>
<!-- D&#45;&gt;D3 -->
<g id="edge11" class="edge">
<title>D&#45;&gt;D3</title>
<path fill="none" stroke="black" d="M613.61,-313.96C646.64,-303.43 688.39,-290.12 722.53,-279.23"/>
<polygon fill="black" stroke="black" points="723.94,-282.46 732.4,-276.09 721.81,-275.79 723.94,-282.46"/>
</g>
<!-- D4 -->
<g id="node13" class="node">
<title>D4</title>
<polygon fill="white" stroke="black" points="1107.5,-276 916.5,-276 916.5,-272 912.5,-272 912.5,-268 916.5,-268 916.5,-248 912.5,-248 912.5,-244 916.5,-244 916.5,-240 1107.5,-240 1107.5,-276"/>
<polyline fill="none" stroke="black" points="916.5,-272 920.5,-272 920.5,-268 916.5,-268 "/>
<polyline fill="none" stroke="black" points="916.5,-248 920.5,-248 920.5,-244 916.5,-244 "/>
<text text-anchor="middle" x="1012" y="-254.3" font-family="Times,serif" font-size="14.00">Other URLs → &lt;p&gt; tags</text>
</g>
<!-- D&#45;&gt;D4 -->
<g id="edge12" class="edge">
<title>D&#45;&gt;D4</title>
<path fill="none" stroke="black" d="M622.52,-321.98C690.74,-311.49 800.99,-294.35 906.57,-277.06"/>
<polygon fill="black" stroke="black" points="907.14,-280.51 916.44,-275.44 906.01,-273.61 907.14,-280.51"/>
</g>
<!-- F -->
<g id="node6" class="node">
<title>F</title>
<polygon fill="lightyellow" stroke="black" points="190,-202 4,-202 4,-164 190,-164 190,-202"/>
<text text-anchor="middle" x="97" y="-186.8" font-family="Times,serif" font-size="14.00">Infer Category &amp; Tags</text>
<text text-anchor="middle" x="97" y="-171.8" font-family="Times,serif" font-size="14.00">(category_keywords.py)</text>
</g>
<!-- E&#45;&gt;F -->
<g id="edge5" class="edge">
<title>E&#45;&gt;F</title>
<path fill="none" stroke="black" d="M97,-238.96C97,-230.88 97,-221.18 97,-212.18"/>
<polygon fill="black" stroke="black" points="100.5,-212.09 97,-202.09 93.5,-212.09 100.5,-212.09"/>
</g>
<!-- G -->
<g id="node7" class="node">
<title>G</title>
<polygon fill="lightpink" stroke="black" points="192.5,-127 189.5,-131 168.5,-131 165.5,-127 1.5,-127 1.5,-89 192.5,-89 192.5,-127"/>
<text text-anchor="middle" x="97" y="-111.8" font-family="Times,serif" font-size="14.00">Append to Category File</text>
<text text-anchor="middle" x="97" y="-96.8" font-family="Times,serif" font-size="14.00">(categories/*.md)</text>
</g>
<!-- F&#45;&gt;G -->
<g id="edge6" class="edge">
<title>F&#45;&gt;G</title>
<path fill="none" stroke="black" d="M97,-163.96C97,-155.88 97,-146.18 97,-137.18"/>
<polygon fill="black" stroke="black" points="100.5,-137.09 97,-127.09 93.5,-137.09 100.5,-137.09"/>
</g>
<!-- I -->
<g id="node9" class="node">
<title>I</title>
<polygon fill="lightgreen" stroke="black" points="287,-38 284,-42 263,-42 260,-38 77,-38 77,0 287,0 287,-38"/>
<text text-anchor="middle" x="182" y="-22.8" font-family="Times,serif" font-size="14.00">Results</text>
<text text-anchor="middle" x="182" y="-7.8" font-family="Times,serif" font-size="14.00">(matched links, categories)</text>
</g>
<!-- G&#45;&gt;I -->
<g id="edge7" class="edge">
<title>G&#45;&gt;I</title>
<path fill="none" stroke="black" d="M114.61,-88.97C126.92,-76.38 143.53,-59.38 157.18,-45.41"/>
<polygon fill="black" stroke="black" points="159.93,-47.6 164.41,-38 154.92,-42.71 159.93,-47.6"/>
<text text-anchor="middle" x="182" y="-59.8" font-family="Times,serif" font-size="14.00">Stored KB</text>
</g>
<!-- H -->
<g id="node8" class="node">
<title>H</title>
<polygon fill="lightcyan" stroke="black" points="319.5,-127 210.5,-127 210.5,-89 325.5,-89 325.5,-121 319.5,-127"/>
<polyline fill="none" stroke="black" points="319.5,-127 319.5,-121 "/>
<polyline fill="none" stroke="black" points="325.5,-121 319.5,-121 "/>
<text text-anchor="middle" x="268" y="-111.8" font-family="Times,serif" font-size="14.00">Search Query</text>
<text text-anchor="middle" x="268" y="-96.8" font-family="Times,serif" font-size="14.00">(search_links)</text>
</g>
<!-- H&#45;&gt;I -->
<g id="edge8" class="edge">
<title>H&#45;&gt;I</title>
<path fill="none" stroke="black" d="M252.71,-88.55C244.25,-78.63 233.37,-66.34 223,-56 219.32,-52.33 215.34,-48.58 211.35,-44.96"/>
<polygon fill="black" stroke="black" points="213.54,-42.22 203.75,-38.19 208.89,-47.45 213.54,-42.22"/>
</g>
</g>
</svg>
