<?xml version="1.0" encoding="UTF-8" standalone="no"?>
<!DOCTYPE svg PUBLIC "-//W3C//DTD SVG 1.1//EN"
 "http://www.w3.org/Graphics/SVG/1.1/DTD/svg11.dtd">
<!-- Generated by graphviz version 2.43.0 (0)
 -->
<!-- Title: PKB_Workflow Pages: 1 -->
<svg width="576pt" height="36pt"
 viewBox="0.00 0.00 576.00 36.40" xmlns="http://www.w3.org/2000/svg" xmlns:xlink="http://www.w3.org/1999/xlink">
<g id="graph0" class="graph" transform="scale(0.36 0.36) rotate(0) translate(4 98)">
<title>PKB_Workflow</title>
<polygon fill="white" stroke="transparent" points="-4,4 -4,-98 1610,-98 1610,4 -4,4"/>
<!-- A -->
<g id="node1" class="node">
<title>A</title>
<polygon fill="lightblue" stroke="black" points="113,-94 110,-98 89,-98 86,-94 0,-94 0,-56 113,-56 113,-94"/>
<text text-anchor="middle" x="56.5" y="-78.8" font-family="Times,serif" font-size="14.00">new_links.md</text>
<text text-anchor="middle" x="56.5" y="-63.8" font-family="Times,serif" font-size="14.00">(Input Links)</text>
</g>
<!-- B -->
<g id="node2" class="node">
<title>B</title>
<polygon fill="lightyellow" stroke="black" points="249,-94 150,-94 150,-56 249,-56 249,-94"/>
<text text-anchor="middle" x="199.5" y="-78.8" font-family="Times,serif" font-size="14.00">Fetch Title</text>
<text text-anchor="middle" x="199.5" y="-63.8" font-family="Times,serif" font-size="14.00">(fetch_title)</text>
</g>
<!-- A&#45;&gt;B -->
<g id="edge1" class="edge">
<title>A&#45;&gt;B</title>
<path fill="none" stroke="black" d="M113.23,-75C121.86,-75 130.8,-75 139.5,-75"/>
<polygon fill="black" stroke="black" points="139.57,-78.5 149.57,-75 139.57,-71.5 139.57,-78.5"/>
</g>
<!-- C -->
<g id="node3" class="node">
<title>C</title>
<polygon fill="lightyellow" stroke="black" points="467,-94 286,-94 286,-56 467,-56 467,-94"/>
<text text-anchor="middle" x="376.5" y="-78.8" font-family="Times,serif" font-size="14.00">Clean Title</text>
<text text-anchor="middle" x="376.5" y="-63.8" font-family="Times,serif" font-size="14.00">(remove_invalid_chars)</text>
</g>
<!-- B&#45;&gt;C -->
<g id="edge2" class="edge">
<title>B&#45;&gt;C</title>
<path fill="none" stroke="black" d="M249.25,-75C257.64,-75 266.63,-75 275.8,-75"/>
<polygon fill="black" stroke="black" points="275.8,-78.5 285.8,-75 275.8,-71.5 275.8,-78.5"/>
</g>
<!-- D -->
<g id="node4" class="node">
<title>D</title>
<polygon fill="lightgreen" stroke="black" points="738,-94 504,-94 504,-56 738,-56 738,-94"/>
<text text-anchor="middle" x="621" y="-78.8" font-family="Times,serif" font-size="14.00">Extract &amp; Summarize Content</text>
<text text-anchor="middle" x="621" y="-63.8" font-family="Times,serif" font-size="14.00">(summary.py)</text>
</g>
<!-- C&#45;&gt;D -->
<g id="edge3" class="edge">
<title>C&#45;&gt;D</title>
<path fill="none" stroke="black" d="M467.11,-75C475.83,-75 484.79,-75 493.79,-75"/>
<polygon fill="black" stroke="black" points="493.95,-78.5 503.95,-75 493.95,-71.5 493.95,-78.5"/>
</g>
<!-- E -->
<g id="node5" class="node">
<title>E</title>
<polygon fill="lightyellow" stroke="black" points="961,-94 775,-94 775,-56 961,-56 961,-94"/>
<text text-anchor="middle" x="868" y="-78.8" font-family="Times,serif" font-size="14.00">Infer Category &amp; Tags</text>
<text text-anchor="middle" x="868" y="-63.8" font-family="Times,serif" font-size="14.00">(category_keywords.py)</text>
</g>
<!-- D&#45;&gt;E -->
<g id="edge4" class="edge">
<title>D&#45;&gt;E</title>
<path fill="none" stroke="black" d="M738.04,-75C746.93,-75 755.87,-75 764.66,-75"/>
<polygon fill="black" stroke="black" points="764.91,-78.5 774.91,-75 764.91,-71.5 764.91,-78.5"/>
</g>
<!-- F -->
<g id="node6" class="node">
<title>F</title>
<polygon fill="lightpink" stroke="black" points="1189,-94 1186,-98 1165,-98 1162,-94 998,-94 998,-56 1189,-56 1189,-94"/>
<text text-anchor="middle" x="1093.5" y="-78.8" font-family="Times,serif" font-size="14.00">Append to Category File</text>
<text text-anchor="middle" x="1093.5" y="-63.8" font-family="Times,serif" font-size="14.00">(categories/AI.md, etc.)</text>
</g>
<!-- E&#45;&gt;F -->
<g id="edge5" class="edge">
<title>E&#45;&gt;F</title>
<path fill="none" stroke="black" d="M961.2,-75C970.02,-75 979.01,-75 987.94,-75"/>
<polygon fill="black" stroke="black" points="987.99,-78.5 997.99,-75 987.99,-71.5 987.99,-78.5"/>
</g>
<!-- H -->
<g id="node8" class="node">
<title>H</title>
<polygon fill="lightgreen" stroke="black" points="1606,-54 1603,-58 1582,-58 1579,-54 1396,-54 1396,-16 1606,-16 1606,-54"/>
<text text-anchor="middle" x="1501" y="-38.8" font-family="Times,serif" font-size="14.00">Results</text>
<text text-anchor="middle" x="1501" y="-23.8" font-family="Times,serif" font-size="14.00">(matched links, categories)</text>
</g>
<!-- F&#45;&gt;H -->
<g id="edge7" class="edge">
<title>F&#45;&gt;H</title>
<path fill="none" stroke="black" d="M1189.06,-65.67C1247.7,-59.89 1323.41,-52.42 1385.44,-46.3"/>
<polygon fill="black" stroke="black" points="1386.06,-49.76 1395.66,-45.29 1385.37,-42.79 1386.06,-49.76"/>
<text text-anchor="middle" x="1292.5" y="-67.8" font-family="Times,serif" font-size="14.00">Stored Knowledge Base</text>
</g>
<!-- G -->
<g id="node7" class="node">
<title>G</title>
<polygon fill="lightcyan" stroke="black" points="1145,-38 1036,-38 1036,0 1151,0 1151,-32 1145,-38"/>
<polyline fill="none" stroke="black" points="1145,-38 1145,-32 "/>
<polyline fill="none" stroke="black" points="1151,-32 1145,-32 "/>
<text text-anchor="middle" x="1093.5" y="-22.8" font-family="Times,serif" font-size="14.00">Search Query</text>
<text text-anchor="middle" x="1093.5" y="-7.8" font-family="Times,serif" font-size="14.00">(search_links)</text>
</g>
<!-- G&#45;&gt;H -->
<g id="edge6" class="edge">
<title>G&#45;&gt;H</title>
<path fill="none" stroke="black" d="M1151.31,-21.24C1211.8,-23.63 1309.17,-27.47 1385.66,-30.49"/>
<polygon fill="black" stroke="black" points="1385.7,-33.99 1395.83,-30.89 1385.98,-27 1385.7,-33.99"/>
</g>
</g>
</svg>
